<svg width="18" height="18" viewBox="0 0 18 18" fill="none" xmlns="http://www.w3.org/2000/svg">
<mask id="mask0_534_134" style="mask-type:luminance" maskUnits="userSpaceOnUse" x="0" y="0" width="18" height="18">
<path d="M18 0H0V18H18V0Z" fill="white"/>
</mask>
<g mask="url(#mask0_534_134)">
<path d="M17.64 9.2046C17.64 8.56641 17.5828 7.95279 17.4764 7.36365H9V10.845H13.8436C13.635 11.97 13.001 12.9232 12.0478 13.5614V15.8196H14.9564C16.6582 14.2528 17.64 11.9455 17.64 9.2046Z" fill="#4285F4"/>
<path d="M9.00028 18C11.4303 18 13.4675 17.194 14.9567 15.8195L12.048 13.5613C11.2421 14.1013 10.2111 14.4204 9.00028 14.4204C6.65614 14.4204 4.67209 12.8372 3.96433 10.71H0.95752V13.0418C2.43847 15.9832 5.48209 18 9.00028 18Z" fill="#34A853"/>
<path d="M3.96405 10.7099C3.78405 10.1699 3.68181 9.59313 3.68181 8.99994C3.68181 8.40675 3.78405 7.82994 3.96405 7.28994V4.95813H0.957241C0.34776 6.17313 0 7.5477 0 8.99994C0 10.4522 0.34776 11.8267 0.957241 13.0417L3.96405 10.7099Z" fill="#FBBC04"/>
<path d="M9.00028 3.57957C10.3217 3.57957 11.5079 4.03362 12.4407 4.92543L15.0221 2.34405C13.4635 0.89181 11.4261 0 9.00028 0C5.48209 0 2.43847 2.01681 0.95752 4.95819L3.96433 7.29C4.67209 5.16276 6.65614 3.57957 9.00028 3.57957Z" fill="#E94235"/>
</g>
</svg>
